<svg xmlns="http://www.w3.org/2000/svg" xmlns:xlink="http://www.w3.org/1999/xlink" viewBox="0 0 512 640">
  <path d="M2,2v508h508V2H2z M493.6,321.5h-73.7V18.4h73.7V321.5z M378.9,321.5V18.4h24.6v303.2H378.9z M403.5,337.9v24.6h-24.6v-24.6  H403.5z M362.5,321.5h-24.6V18.4h24.6V321.5z M362.5,337.9v24.6h-24.6v-24.6H362.5z M321.5,362.5H18.4v-24.6h303.2V362.5z   M321.5,378.9v24.6H18.4v-24.6H321.5z M337.9,378.9h24.6v24.6h-24.6V378.9z M362.5,419.9v73.7h-24.6v-73.7H362.5z M378.9,419.9h24.6  v73.7h-24.6V419.9z M378.9,403.5v-24.6h24.6v24.6H378.9z M419.9,378.9h73.7v24.6h-73.7V378.9z M419.9,362.5v-24.6h73.7v24.6H419.9z   M321.5,18.4v303.2H18.4V18.4H321.5z M18.4,419.9h303.2v73.7H18.4V419.9z M419.9,493.6v-73.7h73.7v73.7H419.9z"/>
</svg>