<svg xmlns="http://www.w3.org/2000/svg" xmlns:xlink="http://www.w3.org/1999/xlink" viewBox="0 0 100 125">
  <path d="M95.751,23.932L56.133,41.94L74.141,2.322C69.154,0.66,62.505,5.647,59.18,12.296L42.99,47.914l-2.095,0.952  c-13.298,4.987-11.636,11.636-19.948,3.325c-2.078-2.078-4.987-3.325-8.311-3.325C5.987,48.866,1,53.853,1,60.502  s4.987,11.636,11.636,11.636c3.325,0,6.234-1.247,8.311-3.325c13.018-13.018,15.083-11.713,19.991-11.68  c0.033,4.908,1.338,6.973-11.68,19.991c-2.078,2.078-3.325,4.987-3.325,8.311c0,6.649,4.987,11.636,11.636,11.636  s11.636-4.987,11.636-11.636c0-3.325-1.247-6.234-3.325-8.311c-8.311-8.311-1.662-6.649,3.325-19.948l0.952-2.095l35.618-16.19  C92.426,35.568,97.413,28.919,95.751,23.932z M12.636,67.152c-3.325,0-6.649-3.325-6.649-6.649s3.325-6.649,6.649-6.649  s6.649,3.325,6.649,6.649S15.961,67.152,12.636,67.152z M37.57,92.086c-3.325,0-6.649-3.325-6.649-6.649s3.325-6.649,6.649-6.649  c3.325,0,6.649,3.325,6.649,6.649S40.895,92.086,37.57,92.086z"/>
</svg>