<svg xmlns="http://www.w3.org/2000/svg" xmlns:xlink="http://www.w3.org/1999/xlink" viewBox="0 0 100 125">
  <path d="M85.07,42.24c-1.07-2.82-3.36-4.93-5.58-6.98c-1.8-1.66-3.66-3.37-4.88-5.47c-1.061-1.82-1.96-3.83-2.83-5.77  c-2.32-5.17-4.71-10.52-10.48-13.2c-3.68-1.71-7.39-2.58-11.04-2.58c-16.38,0-29.73,17.82-33.98,34.57  c-2.11,8.31-3.33,18.23-3.55,28.69c-0.17,8.46,10.8,15.4,16.07,18.74c1.61,1.02,4.15,1.52,7.77,1.52c4.36,0,9.44-0.75,13.15-1.29  c2.22-0.319,3.98-0.58,4.86-0.58c3.72,0,19.5-4.59,23.9-7.609c4.329-2.98,8.38-9.141,8.56-9.4l0.08-0.13V72.6  c-0.04-2.159,0.01-4.51,0.06-6.989C87.35,57.74,87.53,48.82,85.07,42.24z"/>
</svg>