<svg xmlns="http://www.w3.org/2000/svg" xmlns:xlink="http://www.w3.org/1999/xlink">
  <symbol id="facebook" viewBox="0 0 11 23" >
    <title> facebook </title>
    <g fill="none" fill-rule="evenodd">
      <path d="M-16-12h44v44h-44z"/>
      <path d="M7.315 23H2.437V11.499H0V7.536h2.437v-2.38C2.437 1.923 3.813 0 7.723 0h3.255v3.964H8.944c-1.523 0-1.623.554-1.623 1.588l-.007 1.984H11l-.431 3.963H7.314V23z" fill="currentColor" />
    </g>
  </symbol>

  <symbol id="instagram" viewBox="0 0 20 20" >
    <title> instagram </title>
    <g fill="none" fill-rule="evenodd">
      <path d="M-12-12h44v44h-44z"/>
      <path d="M16.135 0H3.865A3.87 3.87 0 0 0 0 3.865v12.27A3.87 3.87 0 0 0 3.865 20h12.27A3.87 3.87 0 0 0 20 16.135V3.865A3.87 3.87 0 0 0 16.135 0zm1.109 2.306l.442-.002v3.39l-3.38.01-.012-3.39 2.95-.008zM7.146 7.946A3.516 3.516 0 0 1 10 6.48c1.175 0 2.214.581 2.854 1.468.417.578.667 1.286.667 2.053 0 1.94-1.58 3.52-3.521 3.52-1.94 0-3.52-1.58-3.52-3.52 0-.767.25-1.475.666-2.053zm10.906 8.189c0 1.057-.86 1.917-1.917 1.917H3.865a1.919 1.919 0 0 1-1.917-1.917V7.947h2.987A5.429 5.429 0 0 0 4.532 10 5.475 5.475 0 0 0 10 15.47 5.475 5.475 0 0 0 15.47 10c0-.726-.148-1.418-.404-2.053h2.986v8.188z" fill="currentColor" />
    </g>
  </symbol>

  <symbol id="instagram" viewBox="0 0 20 20" >
    <title> instagram </title>
    <g fill="none" fill-rule="evenodd">
      <path d="M-12-12h44v44h-44z"/>
      <path d="M16.135 0H3.865A3.87 3.87 0 0 0 0 3.865v12.27A3.87 3.87 0 0 0 3.865 20h12.27A3.87 3.87 0 0 0 20 16.135V3.865A3.87 3.87 0 0 0 16.135 0zm1.109 2.306l.442-.002v3.39l-3.38.01-.012-3.39 2.95-.008zM7.146 7.946A3.516 3.516 0 0 1 10 6.48c1.175 0 2.214.581 2.854 1.468.417.578.667 1.286.667 2.053 0 1.94-1.58 3.52-3.521 3.52-1.94 0-3.52-1.58-3.52-3.52 0-.767.25-1.475.666-2.053zm10.906 8.189c0 1.057-.86 1.917-1.917 1.917H3.865a1.919 1.919 0 0 1-1.917-1.917V7.947h2.987A5.429 5.429 0 0 0 4.532 10 5.475 5.475 0 0 0 10 15.47 5.475 5.475 0 0 0 15.47 10c0-.726-.148-1.418-.404-2.053h2.986v8.188z" fill="currentColor" />
    </g>
  </symbol>

  <symbol id="pinterest" viewBox="0 0 20 26">
    <title> pinterest </title>
    <g fill="none" fill-rule="evenodd">
      <path d="M-12-11h44v44h-44z"/>
      <path d="M0 9.33c0 2.568.967 4.853 3.04 5.705.34.14.644.005.742-.374.069-.262.23-.923.303-1.199.1-.374.06-.505-.214-.832-.597-.71-.98-1.628-.98-2.93 0-3.773 2.806-7.152 7.308-7.152 3.985 0 6.174 2.451 6.174 5.724 0 4.306-1.894 7.94-4.704 7.94-1.554 0-2.715-1.292-2.343-2.876.446-1.892 1.31-3.935 1.31-5.3 0-1.222-.653-2.242-2.001-2.242-1.587 0-2.863 1.652-2.863 3.865 0 1.41.474 2.363.474 2.363l-1.909 8.139c-.566 2.415-.084 5.376-.044 5.674.024.178.25.22.353.087.146-.193 2.035-2.542 2.68-4.887.18-.665 1.042-4.105 1.042-4.105.516.99 2.023 1.86 3.625 1.86C16.764 18.79 20 14.414 20 8.555 20 4.125 16.272 0 10.605 0 3.555 0 0 5.087 0 9.33z" fill="currentColor" />
    </g>
  </symbol>

  <symbol id="reddit"  viewBox="0 0 27 23" >
    <title> reddit </title>
    <g fill="none" fill-rule="evenodd">
      <path d="M-8-10h44v44H-8z"/>
      <path d="M10.081 17.797a.373.373 0 0 0-.058.015.526.526 0 0 0-.393.62c.02.106.071.205.147.28 1.121 1.182 2.79 1.37 4.126 1.374H14.004c1.343 0 3.022-.18 4.155-1.374a.548.548 0 0 0 .007-.745.48.48 0 0 0-.412-.155.496.496 0 0 0-.29.167c-.79.833-2.181 1.047-3.417 1.054h-.158c-1.231-.008-2.617-.224-3.403-1.054a.488.488 0 0 0-.405-.182zm7.818-6.365c-.988 0-1.796.85-1.796 1.892 0 1.042.808 1.893 1.796 1.893.987 0 1.795-.85 1.795-1.893 0-1.042-.808-1.892-1.795-1.892zm-7.847 0c-.989 0-1.795.85-1.795 1.892 0 1.042.806 1.893 1.795 1.893.988 0 1.795-.85 1.795-1.893 0-1.042-.807-1.892-1.795-1.892zm13.956-2.244c1.086 0 1.953.915 1.953 2.06 0 .665-.296 1.255-.752 1.634-.424-1.242-1.247-2.365-2.345-3.296.32-.251.709-.398 1.144-.398zm-20.094 0c.41 0 .775.143 1.085.367-1.093.918-1.919 2.027-2.359 3.25a2.09 2.09 0 0 1-.68-1.556c0-1.146.869-2.06 1.954-2.06zm10.004-1.496c2.983 0 5.67.85 7.585 2.167 1.916 1.32 3.026 3.066 3.026 4.961 0 1.896-1.11 3.658-3.026 4.976-1.916 1.318-4.602 2.153-7.585 2.153-2.985 0-5.671-.835-7.587-2.153-1.915-1.318-3.054-3.08-3.054-4.976 0-1.895 1.139-3.642 3.054-4.96 1.916-1.318 4.602-2.168 7.587-2.168zm8.859-6.623c.798 0 1.433.683 1.433 1.526 0 .842-.635 1.511-1.433 1.511-.801 0-1.433-.669-1.433-1.511 0-.843.632-1.526 1.433-1.526zm0-1.068c-1 0-1.871.651-2.243 1.571L15.988.442a.508.508 0 0 0-.16-.03.509.509 0 0 0-.434.382l-1.78 5.86c-2.997.054-5.713.89-7.746 2.26a2.84 2.84 0 0 0-1.954-.78C2.288 8.134.96 9.534.96 11.25c0 1.113.567 2.098 1.405 2.655a5.86 5.86 0 0 0-.088.915c0 2.333 1.393 4.395 3.503 5.847C7.892 22.116 10.757 23 13.918 23c3.16 0 6.024-.883 8.135-2.334 2.111-1.452 3.474-3.514 3.474-5.847 0-.29-.016-.587-.057-.869a3.15 3.15 0 0 0 1.491-2.701c0-1.716-1.326-3.115-2.953-3.115-.769 0-1.458.317-1.984.825-1.939-1.325-4.506-2.161-7.353-2.29l1.534-5.082 4.14 1.023c.008 1.405 1.097 2.549 2.432 2.549 1.34 0 2.432-1.152 2.432-2.565C25.21 1.182 24.115 0 22.777 0z" fill="currentColor" />
    </g>
  </symbol>

  <symbol id="tumblr" viewBox="0 0 14 21" >
    <title> tumblr </title>
    <g fill="none" fill-rule="evenodd">
      <path d="M-15-11h44v44h-44z"/>
      <path d="M7.482 0v5.253h5.136v3.263H7.482v5.33c0 1.207.067 1.98.199 2.32.132.345.38.618.743.822.477.276 1.025.413 1.642.413 1.096 0 2.185-.344 3.27-1.027v3.28c-.926.416-1.762.71-2.511.88-.751.17-1.562.252-2.433.252-.991 0-1.865-.12-2.625-.359-.76-.242-1.41-.582-1.945-1.027-.537-.443-.911-.918-1.117-1.417-.208-.5-.311-1.225-.311-2.176v-7.29H0V5.574c.853-.266 1.58-.647 2.187-1.14a5.736 5.736 0 0 0 1.458-1.786c.367-.693.62-1.577.759-2.649h3.078" fill="currentColor" />
    </g>
  </symbol>

  <symbol id="twitter" viewBox="0 0 21 18">
    <title> twitter </title>
    <g fill="none" fill-rule="evenodd">
      <path d="M-12-14h44v44h-44z"/>
      <path d="M18.526 2.846A4.51 4.51 0 0 0 20.42.333a8.355 8.355 0 0 1-2.736 1.102A4.194 4.194 0 0 0 14.539 0c-2.38 0-4.307 2.035-4.307 4.544 0 .356.036.703.11 1.034-3.58-.19-6.754-1.996-8.88-4.747a4.724 4.724 0 0 0-.583 2.285c0 1.576.76 2.967 1.917 3.783a4.154 4.154 0 0 1-1.953-.568v.056c0 2.202 1.484 4.04 3.458 4.455a4.01 4.01 0 0 1-1.137.16c-.277 0-.548-.027-.81-.08.548 1.804 2.139 3.12 4.025 3.155-1.476 1.219-3.333 1.944-5.351 1.944-.348 0-.691-.02-1.028-.062A11.747 11.747 0 0 0 6.604 18c7.926 0 12.257-6.924 12.257-12.929 0-.197-.002-.394-.01-.587A9.006 9.006 0 0 0 21 2.13a8.257 8.257 0 0 1-2.474.715z" fill="currentColor" />
    </g>
  </symbol>

  <symbol id="vimeo" viewBox="0 0 20 18">
    <title> vimeo </title>
    <g fill="none" fill-rule="evenodd">
      <path d="M-12-14h44v44h-44z"/>
      <path d="M15.914 12.482C13.195 16.162 10.892 18 9.01 18c-1.164 0-2.15-1.119-2.956-3.363-.54-2.06-1.076-4.119-1.615-6.172-.6-2.245-1.242-3.368-1.929-3.368-.149 0-.67.328-1.568.984L0 4.817c.985-.902 1.957-1.807 2.915-2.71C4.228.923 5.215.301 5.873.236c1.552-.157 2.51.95 2.87 3.319.385 2.557.655 4.146.805 4.77.449 2.119.94 3.176 1.479 3.176.417 0 1.045-.684 1.883-2.054.837-1.373 1.283-2.415 1.344-3.134.12-1.185-.328-1.774-1.344-1.774-.48 0-.973.106-1.48.327.988-3.335 2.87-4.957 5.65-4.862 2.059.06 3.031 1.448 2.91 4.158-.087 2.028-1.449 4.801-4.076 8.32z" fill="currentColor" />
    </g>
  </symbol>

  <symbol id="youtube" viewBox="0 0 20 14">
    <title> youtube </title>
    <g fill="none" fill-rule="evenodd">
      <path d="M-12-15h44v44h-44z"/>
      <path d="M20 10.564V3.436S20 0 16.553 0H3.445S0 0 0 3.436v7.128S0 14 3.445 14h13.108S20 14 20 10.564M13.883 7.01l-6.548 3.833V3.176l6.548 3.834" fill="currentColor" />
    </g>
  </symbol>

  <symbol id="menu" viewBox="0 0 24 24">
    <title>menu</title>
    <path fill="currentColor" d="M21 11h-18c-0.55 0-1 0.45-1 1s0.45 1 1 1h18c0.55 0 1-0.45 1-1s-0.45-1-1-1z"></path>
    <path fill="currentColor" d="M3 7h18c0.55 0 1-0.45 1-1s-0.45-1-1-1h-18c-0.55 0-1 0.45-1 1s0.45 1 1 1z"></path>
    <path fill="currentColor" d="M21 17h-18c-0.55 0-1 0.45-1 1s0.45 1 1 1h18c0.55 0 1-0.45 1-1s-0.45-1-1-1z"></path>
  </symbol>

  <symbol id="play" viewBox="0 0 32 32">
    <title>Play icon</title>
    <path fill="currentColor" d="M6 4l20 12-20 12z"></path>
  </symbol>

  <symbol id="user" viewBox="0 0 24 32">
    <title>Login</title>
    <path fill="currentColor" d="M12 16c-6.625 0-12 5.375-12 12 0 2.211 1.789 4 4 4h16c2.211 0 4-1.789 4-4 0-6.625-5.375-12-12-12zM6 6c0-3.314 2.686-6 6-6s6 2.686 6 6c0 3.314-2.686 6-6 6s-6-2.686-6-6z"></path>
  </symbol>

  <symbol id="search" viewBox="0 0 32 32">
    <title>Search</title>
    <path fill="currentColor" d="M19.427 20.427c-1.39 0.99-3.090 1.573-4.927 1.573-4.694 0-8.5-3.806-8.5-8.5s3.806-8.5 8.5-8.5c4.694 0 8.5 3.806 8.5 8.5 0 2.347-0.951 4.472-2.49 6.010l5.997 5.997c0.275 0.275 0.268 0.716-0.008 0.992-0.278 0.278-0.72 0.28-0.992 0.008l-6.081-6.081zM14.5 21c4.142 0 7.5-3.358 7.5-7.5s-3.358-7.5-7.5-7.5c-4.142 0-7.5 3.358-7.5 7.5s3.358 7.5 7.5 7.5v0z"></path>
  </symbol>
</svg>
